<svg width="133" height="98" viewBox="0 0 133 98" fill="none" xmlns="http://www.w3.org/2000/svg">
<g id="Arrow" filter="url(#filter0_d_741_120)">
<path d="M121.598 88.1665C122.321 88.1175 122.868 87.4918 122.819 86.7689C122.77 86.046 122.144 85.4997 121.421 85.5487L121.598 88.1665ZM17.9078 9.65653C17.2802 9.29445 16.478 9.5097 16.1159 10.1373L10.2156 20.3645C9.85356 20.992 10.0688 21.7943 10.6964 22.1564C11.324 22.5185 12.1263 22.3032 12.4883 21.6756L17.733 12.5848L26.8238 17.8295C27.4514 18.1916 28.2537 17.9763 28.6158 17.3487C28.9778 16.7211 28.7626 15.9189 28.135 15.5568L17.9078 9.65653ZM85.219 50.6981C80.884 55.2384 76.318 57.6167 71.7557 58.4932C67.18 59.3723 62.5126 58.7584 57.9662 57.1576C48.8384 53.9436 40.3839 46.8152 34.6052 40.3762L32.6525 42.1286C38.577 48.7301 47.3832 56.2129 57.0948 59.6324C61.968 61.3483 67.1149 62.0566 72.2508 61.0699C77.4001 60.0806 82.4429 57.4052 87.1167 52.51L85.219 50.6981ZM34.6052 40.3762C28.8802 33.9969 24.8529 26.5183 22.2528 20.6045C20.9553 17.6531 20.019 15.1049 19.4081 13.2982C19.1028 12.3951 18.8791 11.6781 18.7324 11.1896C18.6591 10.9453 18.605 10.7583 18.5697 10.6337C18.552 10.5715 18.5391 10.5248 18.5307 10.4944C18.5265 10.4793 18.5235 10.4682 18.5216 10.4612C18.5206 10.4577 18.52 10.4553 18.5196 10.4539C18.5194 10.4532 18.5193 10.4528 18.5193 10.4526C18.5192 10.4525 18.5193 10.4526 18.5192 10.4526C18.5193 10.4527 18.5193 10.4529 17.2522 10.7929C15.9852 11.1328 15.9852 11.1332 15.9854 11.1336C15.9854 11.1338 15.9855 11.1343 15.9857 11.1347C15.9859 11.1356 15.9862 11.1368 15.9866 11.1382C15.9874 11.141 15.9884 11.1449 15.9898 11.1499C15.9925 11.1598 15.9963 11.1739 16.0013 11.192C16.0113 11.2284 16.026 11.2812 16.0455 11.3496C16.0843 11.4866 16.1421 11.6865 16.2194 11.9441C16.374 12.4591 16.6069 13.2048 16.9225 14.1385C17.5537 16.0054 18.5172 18.627 19.8509 21.6605C22.5134 27.7163 26.6744 35.4674 32.6525 42.1286L34.6052 40.3762ZM121.51 86.8576C121.421 85.5487 121.421 85.5487 121.421 85.5487C121.421 85.5488 121.42 85.5488 121.419 85.5488C121.418 85.5489 121.415 85.5491 121.412 85.5493C121.405 85.5498 121.394 85.5505 121.379 85.5514C121.349 85.5533 121.304 85.5561 121.244 85.5597C121.123 85.5667 120.942 85.5767 120.705 85.5882C120.23 85.6112 119.532 85.6401 118.643 85.6634C116.864 85.7101 114.325 85.7342 111.292 85.6433C105.217 85.4615 97.2002 84.8197 89.3608 82.992C81.4986 81.1589 73.9532 78.164 68.6974 73.3692C63.5106 68.6373 60.48 62.0933 61.6771 52.8654L59.0751 52.5278C57.7655 62.6233 61.1233 70.0111 66.9291 75.3075C72.6658 80.5411 80.7171 83.6709 88.765 85.5473C96.8357 87.4289 105.042 88.0812 111.213 88.266C114.303 88.3585 116.892 88.3341 118.712 88.2863C119.622 88.2625 120.339 88.2328 120.832 88.2089C121.078 88.197 121.267 88.1865 121.397 88.179C121.461 88.1752 121.511 88.1722 121.545 88.17C121.561 88.169 121.574 88.1681 121.583 88.1675C121.588 88.1672 121.591 88.167 121.594 88.1668C121.595 88.1667 121.596 88.1667 121.597 88.1666C121.598 88.1666 121.598 88.1665 121.51 86.8576ZM61.6771 52.8654C62.9025 43.4184 66.1638 37.689 69.8953 34.5754C73.614 31.4724 77.9244 30.8558 81.5638 31.847C85.2346 32.8468 88.1619 35.457 89.1913 38.7684C90.2009 42.0162 89.4725 46.2432 85.219 50.6981L87.1167 52.51C91.872 47.5295 93.0507 42.3445 91.6968 37.9895C90.3627 33.698 86.656 30.5145 82.2533 29.3154C77.8192 28.1078 72.6167 28.8873 68.2142 32.5608C63.8245 36.2237 60.3563 42.6514 59.0751 52.5278L61.6771 52.8654Z" fill="url(#paint0_linear_741_120)"/>
</g>
<defs>
<filter id="filter0_d_741_120" x="0.85648" y="0.297398" width="131.149" height="97.2148" filterUnits="userSpaceOnUse" color-interpolation-filters="sRGB">
<feFlood flood-opacity="0" result="BackgroundImageFix"/>
<feColorMatrix in="SourceAlpha" type="matrix" values="0 0 0 0 0 0 0 0 0 0 0 0 0 0 0 0 0 0 127 0" result="hardAlpha"/>
<feOffset/>
<feGaussianBlur stdDeviation="4.59166"/>
<feComposite in2="hardAlpha" operator="out"/>
<feColorMatrix type="matrix" values="0 0 0 0 0.996078 0 0 0 0 0.776471 0 0 0 0 0.25098 0 0 0 0.2 0"/>
<feBlend mode="normal" in2="BackgroundImageFix" result="effect1_dropShadow_741_120"/>
<feBlend mode="normal" in="SourceGraphic" in2="effect1_dropShadow_741_120" result="shape"/>
</filter>
<linearGradient id="paint0_linear_741_120" x1="122.351" y1="54.057" x2="68.0967" y2="-30.5229" gradientUnits="userSpaceOnUse">
<stop stop-color="#FEDA82"/>
<stop offset="1" stop-color="#FEC338"/>
</linearGradient>
</defs>
</svg>
