<svg width="119" height="61" viewBox="0 0 119 61" fill="none" xmlns="http://www.w3.org/2000/svg">
<g id="logo">
<path fill-rule="evenodd" clip-rule="evenodd" d="M24.7139 0.592652L24.7139 5.96523H19.3413V17.7849H31.5191V12.7099H36.7395V17.6994L56.5911 17.7849L56.5912 12.7705H61.9637V37.1226H56.9493V31.7536H36.8917V37.1226H31.5191L31.5191 31.7536H25.4302L25.4302 55.0348H31.1609V60.4074H7.16343V55.0348H12.505L12.505 31.4204H5.37258L5.37258 5.96523L0 5.96523L2.34842e-07 0.592651L24.7139 0.592652ZM22.5648 3.80016V2.73099L2.1697 2.73099V3.80016L22.5648 3.80016ZM29.3701 58.2583V57.1838H8.95968V58.2583L29.3701 58.2583ZM16.4759 44.2896L16.4759 31.7536H15.4014L15.4014 44.2896H16.4759ZM16.4759 52.1694V47.5132H15.4014V52.1694H16.4759ZM34.7427 35.3353V14.9195H33.6682V35.3353H34.7427ZM48.3532 21.7248V21.0085H39.0407V21.7248L48.3532 21.7248ZM54.8003 21.7248V21.0085H51.5767V21.7248H54.8003ZM59.8147 35.3353V14.9195H58.7402V35.3353H59.8147Z" fill="url(#paint0_linear_339_52)"/>
<path d="M69.5591 17.1401H74.0279L77.8187 26.3838H77.9937L81.7845 17.1401H86.2533V32.0701H82.7395V22.8992H82.6156L79.0289 31.9753H76.7835L73.1968 22.8482H73.0729V32.0701H69.5591V17.1401Z" fill="url(#paint1_linear_339_52)"/>
<path d="M102.801 24.6051C102.801 26.2478 102.485 27.6402 101.853 28.7823C101.222 29.9244 100.366 30.7919 99.2872 31.3848C98.2132 31.9777 97.0079 32.2742 95.6714 32.2742C94.33 32.2742 93.1223 31.9753 92.0482 31.3775C90.9742 30.7797 90.1212 29.9122 89.4894 28.775C88.8625 27.6329 88.549 26.2429 88.549 24.6051C88.549 22.9624 88.8625 21.57 89.4894 20.4279C90.1212 19.2858 90.9742 18.4183 92.0482 17.8253C93.1223 17.2324 94.33 16.936 95.6714 16.936C97.0079 16.936 98.2132 17.2324 99.2872 17.8253C100.366 18.4183 101.222 19.2858 101.853 20.4279C102.485 21.57 102.801 22.9624 102.801 24.6051ZM99.1123 24.6051C99.1123 23.6331 98.9738 22.8117 98.6967 22.141C98.4246 21.4704 98.0309 20.9625 97.5158 20.6174C97.0055 20.2724 96.3907 20.0998 95.6714 20.0998C94.9569 20.0998 94.3422 20.2724 93.827 20.6174C93.3118 20.9625 92.9157 21.4704 92.6387 22.141C92.3665 22.8117 92.2305 23.6331 92.2305 24.6051C92.2305 25.5771 92.3665 26.3984 92.6387 27.0691C92.9157 27.7398 93.3118 28.2477 93.827 28.5927C94.3422 28.9378 94.9569 29.1103 95.6714 29.1103C96.3907 29.1103 97.0055 28.9378 97.5158 28.5927C98.0309 28.2477 98.4246 27.7398 98.6967 27.0691C98.9738 26.3984 99.1123 25.5771 99.1123 24.6051Z" fill="url(#paint2_linear_339_52)"/>
<path d="M118.665 22.5493H115.02C114.972 22.1751 114.872 21.8373 114.721 21.536C114.571 21.2346 114.371 20.9771 114.124 20.7632C113.876 20.5494 113.582 20.3866 113.242 20.2748C112.906 20.1581 112.534 20.0998 112.126 20.0998C111.402 20.0998 110.777 20.2772 110.253 20.632C109.733 20.9868 109.332 21.4995 109.05 22.1702C108.773 22.8409 108.634 23.6525 108.634 24.6051C108.634 25.5965 108.775 26.4276 109.057 27.0983C109.344 27.7641 109.745 28.2671 110.26 28.6073C110.78 28.9426 111.395 29.1103 112.104 29.1103C112.503 29.1103 112.865 29.0593 113.19 28.9572C113.521 28.8552 113.81 28.7069 114.058 28.5125C114.311 28.3133 114.517 28.0727 114.678 27.7908C114.843 27.5041 114.957 27.1809 115.02 26.8212L118.665 26.8431C118.602 27.5041 118.41 28.1553 118.089 28.7968C117.773 29.4384 117.339 30.024 116.784 30.5537C116.23 31.0786 115.555 31.4966 114.758 31.8076C113.966 32.1187 113.057 32.2742 112.031 32.2742C110.68 32.2742 109.47 31.9777 108.401 31.3848C107.337 30.787 106.496 29.9171 105.879 28.775C105.261 27.6329 104.953 26.2429 104.953 24.6051C104.953 22.9624 105.266 21.57 105.893 20.4279C106.52 19.2858 107.368 18.4183 108.437 17.8253C109.507 17.2324 110.705 16.936 112.031 16.936C112.935 16.936 113.771 17.0623 114.539 17.315C115.307 17.5629 115.983 17.9274 116.566 18.4085C117.149 18.8848 117.623 19.4705 117.987 20.1654C118.352 20.8604 118.578 21.655 118.665 22.5493Z" fill="url(#paint3_linear_339_52)"/>
<path d="M47.5913 41.4013V55.336H44.2709V44.0957H39.0999V55.336H35.7795V41.4013H47.5913Z" fill="url(#paint4_linear_339_52)"/>
<path d="M50.3923 55.336V41.4013H56.1485C57.1918 41.4013 58.0922 41.6054 58.8497 42.0137C59.6117 42.4174 60.1991 42.9821 60.6119 43.7079C61.0247 44.4291 61.2311 45.2683 61.2311 46.2254C61.2311 47.187 61.0202 48.0285 60.5983 48.7497C60.181 49.4664 59.5845 50.022 58.8089 50.4167C58.0332 50.8113 57.1124 51.0086 56.0464 51.0086L53.7603 51.0086V48.355L55.4204 48.355C55.9285 48.355 56.3526 48.2666 56.6928 48.0897C57.0375 47.9128 57.2984 47.6656 57.4753 47.3481C57.6522 47.026 57.7406 46.6518 57.7406 46.2254C57.7406 45.7945 57.6522 45.4225 57.4753 45.1095C57.2984 44.792 57.0375 44.5471 56.6928 44.3747C56.3481 44.2023 55.9239 44.1161 55.4204 44.1161H53.7603V55.336H50.3923Z" fill="url(#paint5_linear_339_52)"/>
<path d="M76.2351 48.3686C76.2351 49.9018 75.9402 51.2014 75.3505 52.2674C74.7609 53.3333 73.9625 54.143 72.9555 54.6964C71.9531 55.2498 70.8281 55.5265 69.5807 55.5265C68.3288 55.5265 67.2016 55.2475 66.1991 54.6896C65.1967 54.1317 64.4006 53.322 63.8109 52.2606C63.2258 51.1946 62.9332 49.8973 62.9332 48.3686C62.9332 46.8355 63.2258 45.5359 63.8109 44.4699C64.4006 43.404 65.1967 42.5943 66.1991 42.0409C67.2016 41.4875 68.3288 41.2108 69.5807 41.2108C70.8281 41.2108 71.9531 41.4875 72.9555 42.0409C73.9625 42.5943 74.7609 43.404 75.3505 44.4699C75.9402 45.5359 76.2351 46.8355 76.2351 48.3686ZM72.7922 48.3686C72.7922 47.4614 72.663 46.6949 72.4044 46.0689C72.1504 45.4429 71.783 44.9689 71.3021 44.6468C70.8259 44.3248 70.2521 44.1638 69.5807 44.1638C68.9139 44.1638 68.3401 44.3248 67.8593 44.6468C67.3785 44.9689 67.0088 45.4429 66.7503 46.0689C66.4962 46.6949 66.3692 47.4614 66.3692 48.3686C66.3692 49.2759 66.4962 50.0424 66.7503 50.6684C67.0088 51.2944 67.3785 51.7684 67.8593 52.0905C68.3401 52.4125 68.9139 52.5735 69.5807 52.5735C70.2521 52.5735 70.8259 52.4125 71.3021 52.0905C71.783 51.7684 72.1504 51.2944 72.4044 50.6684C72.663 50.0424 72.7922 49.2759 72.7922 48.3686Z" fill="url(#paint6_linear_339_52)"/>
<path d="M86.9049 55.336L82.5231 49.5526H81.761V55.336H78.393V41.4013H81.761V46.8105H82.2986L86.6123 41.4013H90.824L85.4556 47.9808L91.103 55.336H86.9049Z" fill="url(#paint7_linear_339_52)"/>
<path d="M104.853 48.3686C104.853 49.9018 104.558 51.2014 103.969 52.2674C103.379 53.3333 102.581 54.143 101.574 54.6964C100.571 55.2498 99.4464 55.5265 98.199 55.5265C96.947 55.5265 95.8198 55.2475 94.8174 54.6896C93.8149 54.1317 93.0188 53.322 92.4292 52.2606C91.844 51.1946 91.5514 49.8973 91.5514 48.3686C91.5514 46.8355 91.844 45.5359 92.4292 44.4699C93.0188 43.404 93.8149 42.5943 94.8174 42.0409C95.8198 41.4875 96.947 41.2108 98.199 41.2108C99.4464 41.2108 100.571 41.4875 101.574 42.0409C102.581 42.5943 103.379 43.404 103.969 44.4699C104.558 45.5359 104.853 46.8355 104.853 48.3686ZM101.41 48.3686C101.41 47.4614 101.281 46.6949 101.023 46.0689C100.769 45.4429 100.401 44.9689 99.9204 44.6468C99.4441 44.3248 98.8703 44.1638 98.199 44.1638C97.5322 44.1638 96.9584 44.3248 96.4776 44.6468C95.9967 44.9689 95.6271 45.4429 95.3685 46.0689C95.1145 46.6949 94.9875 47.4614 94.9875 48.3686C94.9875 49.2759 95.1145 50.0424 95.3685 50.6684C95.6271 51.2944 95.9967 51.7684 96.4776 52.0905C96.9584 52.4125 97.5322 52.5735 98.199 52.5735C98.8703 52.5735 99.4441 52.4125 99.9204 52.0905C100.401 51.7684 100.769 51.2944 101.023 50.6684C101.281 50.0424 101.41 49.2759 101.41 48.3686Z" fill="url(#paint8_linear_339_52)"/>
<path d="M106.406 55.336V52.696L106.787 52.6552C107.277 52.5962 107.676 52.3989 107.984 52.0632C108.293 51.723 108.526 51.1833 108.685 50.4439C108.848 49.7 108.953 48.6952 108.998 47.4297L109.223 41.4013H119V55.336H115.741V44.0549H112.332L112.114 48.668C112.037 50.2602 111.835 51.5461 111.509 52.5259C111.182 53.5012 110.676 54.2133 109.991 54.6624C109.311 55.1115 108.397 55.336 107.249 55.336H106.406Z" fill="url(#paint9_linear_339_52)"/>
</g>
<defs>
<linearGradient id="paint0_linear_339_52" x1="59.5" y1="0.592651" x2="59.5" y2="60.4074" gradientUnits="userSpaceOnUse">
<stop stop-color="#FFD743"/>
<stop offset="1" stop-color="#CEA200"/>
</linearGradient>
<linearGradient id="paint1_linear_339_52" x1="77.3249" y1="36.1758" x2="77.3249" y2="59.4417" gradientUnits="userSpaceOnUse">
<stop stop-color="#FFD743"/>
<stop offset="1" stop-color="#CEA200"/>
</linearGradient>
<linearGradient id="paint2_linear_339_52" x1="77.3249" y1="36.1758" x2="77.3249" y2="59.4417" gradientUnits="userSpaceOnUse">
<stop stop-color="#FFD743"/>
<stop offset="1" stop-color="#CEA200"/>
</linearGradient>
<linearGradient id="paint3_linear_339_52" x1="77.3249" y1="36.1758" x2="77.3249" y2="59.4417" gradientUnits="userSpaceOnUse">
<stop stop-color="#FFD743"/>
<stop offset="1" stop-color="#CEA200"/>
</linearGradient>
<linearGradient id="paint4_linear_339_52" x1="77.3249" y1="36.1758" x2="77.3249" y2="59.4417" gradientUnits="userSpaceOnUse">
<stop stop-color="#FFD743"/>
<stop offset="1" stop-color="#CEA200"/>
</linearGradient>
<linearGradient id="paint5_linear_339_52" x1="77.3249" y1="36.1758" x2="77.3249" y2="59.4417" gradientUnits="userSpaceOnUse">
<stop stop-color="#FFD743"/>
<stop offset="1" stop-color="#CEA200"/>
</linearGradient>
<linearGradient id="paint6_linear_339_52" x1="77.3249" y1="36.1758" x2="77.3249" y2="59.4417" gradientUnits="userSpaceOnUse">
<stop stop-color="#FFD743"/>
<stop offset="1" stop-color="#CEA200"/>
</linearGradient>
<linearGradient id="paint7_linear_339_52" x1="77.3249" y1="36.1758" x2="77.3249" y2="59.4417" gradientUnits="userSpaceOnUse">
<stop stop-color="#FFD743"/>
<stop offset="1" stop-color="#CEA200"/>
</linearGradient>
<linearGradient id="paint8_linear_339_52" x1="77.3249" y1="36.1758" x2="77.3249" y2="59.4417" gradientUnits="userSpaceOnUse">
<stop stop-color="#FFD743"/>
<stop offset="1" stop-color="#CEA200"/>
</linearGradient>
<linearGradient id="paint9_linear_339_52" x1="77.3249" y1="36.1758" x2="77.3249" y2="59.4417" gradientUnits="userSpaceOnUse">
<stop stop-color="#FFD743"/>
<stop offset="1" stop-color="#CEA200"/>
</linearGradient>
</defs>
</svg>
