<svg width="20" height="21" viewBox="0 0 20 21" fill="none" xmlns="http://www.w3.org/2000/svg">
<g id="phone 1">
<path id="Vector" d="M16.5625 17.947C14.9514 17.947 13.309 17.5581 11.6354 16.7803C9.96181 16.0025 8.40972 14.8983 6.97917 13.4678C5.54861 12.0372 4.44444 10.4852 3.66667 8.81154C2.88889 7.13793 2.5 5.49557 2.5 3.88446C2.5 3.6166 2.58928 3.39338 2.76785 3.21481C2.94642 3.03625 3.16964 2.94696 3.4375 2.94696H6.35417C6.54861 2.94696 6.71528 3.0164 6.85417 3.15529C6.99306 3.29418 7.09028 3.46779 7.14583 3.67613L7.70685 6.29365C7.73562 6.49308 7.73264 6.67266 7.69792 6.83238C7.66319 6.9921 7.58869 7.12909 7.4744 7.24334L5.39583 9.34279C5.75694 9.95391 6.13889 10.5233 6.54167 11.0511C6.94444 11.5789 7.38889 12.0789 7.875 12.5511C8.38889 13.0789 8.93056 13.5615 9.5 13.999C10.0694 14.4365 10.6667 14.822 11.2917 15.1553L13.2708 13.1136C13.4097 12.9608 13.5705 12.8567 13.7531 12.8011C13.9358 12.7456 14.1153 12.7317 14.2917 12.7595L16.7708 13.3011C16.9792 13.3567 17.1528 13.4681 17.2917 13.6354C17.4306 13.8027 17.5 13.9899 17.5 14.197V17.0095C17.5 17.2773 17.4107 17.5005 17.2321 17.6791C17.0536 17.8577 16.8304 17.947 16.5625 17.947ZM4.77083 8.19696L6.45833 6.48863L5.97917 4.19696H3.75C3.77778 4.78029 3.87153 5.39488 4.03125 6.04071C4.19097 6.68654 4.4375 7.40529 4.77083 8.19696ZM12.4583 15.7595C13.0278 16.0233 13.6458 16.2386 14.3125 16.4053C14.9792 16.572 15.625 16.6692 16.25 16.697V14.4678L14.1042 14.0303L12.4583 15.7595Z" fill="#C6C6C6"/>
</g>
</svg>
