<svg width="111" height="44" viewBox="0 0 111 44" fill="none" xmlns="http://www.w3.org/2000/svg">
<path fill-rule="evenodd" clip-rule="evenodd" d="M18.058 7.8934e-07L18.058 3.92565L14.1323 3.92565L14.1323 12.5621L23.0305 12.5621L23.0305 8.85387L26.8449 8.85387L26.8449 12.4996L41.3502 12.5621L41.3502 8.89814L45.2758 8.89814L45.2758 26.6918L41.6119 26.6918L41.6119 22.7688L26.9561 22.7688L26.9561 26.6918L23.0305 26.6918L23.0305 22.7688L18.5814 22.7688L18.5814 39.7799L22.7688 39.7799L22.7688 43.7056L5.2342 43.7056L5.2342 39.7799L9.13719 39.7799L9.13719 22.5253L3.92565 22.5253L3.92565 3.92565L-1.71596e-07 3.92565L0 0L18.058 7.8934e-07ZM16.4877 2.34367L16.4877 1.56245L1.58536 1.56245L1.58536 2.34367L16.4877 2.34367ZM21.4602 42.1353L21.4602 41.3502L6.54668 41.3502L6.54668 42.1353L21.4602 42.1353ZM12.0387 31.9286L12.0387 22.7688L11.2535 22.7688L11.2535 31.9286L12.0387 31.9286ZM12.0387 37.6862L12.0387 34.284L11.2535 34.284L11.2535 37.6862L12.0387 37.6862ZM25.3859 25.3859L25.3859 10.4684L24.6007 10.4684L24.6007 25.3859L25.3859 25.3859ZM35.3308 15.4409L35.3308 14.9175L28.5264 14.9175L28.5264 15.4409L35.3308 15.4409ZM40.0416 15.4409L40.0416 14.9175L37.6862 14.9175L37.6862 15.4409L40.0416 15.4409ZM43.7056 25.3859L43.7056 10.4684L42.9204 10.4684L42.9204 25.3859L43.7056 25.3859Z" fill="url(#paint0_linear_105_382)"/>
<path d="M47.7706 12.8182H50.8182L53.4034 19.1222H53.5227L56.108 12.8182H59.1555V23H56.7592V16.7457H56.6747L54.2287 22.9354H52.6974L50.2514 16.7109H50.1669V23H47.7706V12.8182ZM70.4406 17.9091C70.4406 19.0294 70.2252 19.9789 69.7943 20.7578C69.3634 21.5367 68.7801 22.1283 68.0443 22.5327C67.3118 22.937 66.4898 23.1392 65.5784 23.1392C64.6636 23.1392 63.84 22.9354 63.1075 22.5277C62.375 22.12 61.7934 21.5284 61.3625 20.7528C60.9349 19.974 60.7211 19.026 60.7211 17.9091C60.7211 16.7888 60.9349 15.8393 61.3625 15.0604C61.7934 14.2815 62.375 13.6899 63.1075 13.2855C63.84 12.8812 64.6636 12.679 65.5784 12.679C66.4898 12.679 67.3118 12.8812 68.0443 13.2855C68.7801 13.6899 69.3634 14.2815 69.7943 15.0604C70.2252 15.8393 70.4406 16.7888 70.4406 17.9091ZM67.925 17.9091C67.925 17.2462 67.8305 16.6861 67.6416 16.2287C67.456 15.7713 67.1875 15.425 66.8362 15.1896C66.4882 14.9543 66.0689 14.8366 65.5784 14.8366C65.0912 14.8366 64.6719 14.9543 64.3206 15.1896C63.9692 15.425 63.6991 15.7713 63.5102 16.2287C63.3246 16.6861 63.2318 17.2462 63.2318 17.9091C63.2318 18.572 63.3246 19.1321 63.5102 19.5895C63.6991 20.0469 63.9692 20.3932 64.3206 20.6286C64.6719 20.8639 65.0912 20.9815 65.5784 20.9815C66.0689 20.9815 66.4882 20.8639 66.8362 20.6286C67.1875 20.3932 67.456 20.0469 67.6416 19.5895C67.8305 19.1321 67.925 18.572 67.925 17.9091ZM81.2596 16.5071H78.7738C78.7406 16.2519 78.6727 16.0215 78.57 15.8161C78.4672 15.6106 78.3313 15.4349 78.1623 15.2891C77.9932 15.1432 77.7927 15.0322 77.5607 14.956C77.332 14.8764 77.0785 14.8366 76.8001 14.8366C76.3062 14.8366 75.8803 14.9576 75.5224 15.1996C75.1677 15.4415 74.8943 15.7912 74.7021 16.2486C74.5131 16.706 74.4187 17.2595 74.4187 17.9091C74.4187 18.5852 74.5148 19.152 74.707 19.6094C74.9026 20.0634 75.176 20.4065 75.5273 20.6385C75.882 20.8672 76.3012 20.9815 76.7851 20.9815C77.0569 20.9815 77.3039 20.9467 77.5259 20.8771C77.7513 20.8075 77.9485 20.7064 78.1175 20.5739C78.2899 20.438 78.4307 20.2739 78.5401 20.0817C78.6528 19.8861 78.7307 19.6657 78.7738 19.4205L81.2596 19.4354C81.2165 19.8861 81.0856 20.3303 80.8668 20.7678C80.6514 21.2053 80.3548 21.6046 79.9769 21.9659C79.5991 22.3239 79.1384 22.6089 78.5948 22.821C78.0546 23.0331 77.4348 23.1392 76.7354 23.1392C75.814 23.1392 74.9887 22.937 74.2596 22.5327C73.5337 22.125 72.9603 21.5317 72.5394 20.7528C72.1185 19.974 71.908 19.026 71.908 17.9091C71.908 16.7888 72.1218 15.8393 72.5494 15.0604C72.9769 14.2815 73.5553 13.6899 74.2844 13.2855C75.0136 12.8812 75.8306 12.679 76.7354 12.679C77.3519 12.679 77.922 12.7652 78.4457 12.9375C78.9693 13.1065 79.43 13.3551 79.8278 13.6832C80.2255 14.008 80.5486 14.4074 80.7972 14.8814C81.0458 15.3554 81.1999 15.8973 81.2596 16.5071ZM82.8078 23V12.8182H89.763V14.8168H85.2687V16.4077H86.611C87.4396 16.4077 88.1605 16.5419 88.7737 16.8104C89.3902 17.0788 89.8658 17.4567 90.2005 17.9439C90.5386 18.4311 90.7076 19.0045 90.7076 19.6641C90.7076 20.3236 90.5386 20.9036 90.2005 21.4041C89.8658 21.9046 89.3902 22.2957 88.7737 22.5774C88.1605 22.8591 87.4396 23 86.611 23H82.8078ZM85.2687 21.0511H86.611C86.969 21.0511 87.2706 20.9898 87.5159 20.8672C87.7645 20.7412 87.9517 20.5722 88.0777 20.3601C88.2069 20.1446 88.2716 19.906 88.2716 19.6442C88.2716 19.2663 88.129 18.9515 87.844 18.6996C87.559 18.4444 87.148 18.3168 86.611 18.3168H85.2687V21.0511ZM93.3136 23.1392V21.1903H93.8356C94.1173 21.1903 94.3427 21.1622 94.5117 21.1058C94.6841 21.0462 94.8183 20.9517 94.9144 20.8224C95.0138 20.6932 95.0967 20.5208 95.163 20.3054L95.2773 19.9922L91.5188 12.8182H94.0444L96.3065 17.392L98.1261 12.8182H100.612L97.1118 20.8871C96.9296 21.2848 96.7141 21.656 96.4655 22.0007C96.217 22.3421 95.9038 22.6172 95.5259 22.826C95.1514 23.0348 94.6791 23.1392 94.109 23.1392H93.3136ZM101.791 23V12.8182H105.997C106.759 12.8182 107.417 12.9673 107.971 13.2656C108.527 13.5606 108.957 13.9732 109.258 14.5036C109.56 15.0305 109.711 15.6437 109.711 16.343C109.711 17.0457 109.557 17.6605 109.248 18.1875C108.943 18.7112 108.508 19.1172 107.941 19.4055C107.374 19.6939 106.701 19.8381 105.922 19.8381H103.327V17.8991H105.465C105.836 17.8991 106.146 17.8345 106.395 17.7053C106.646 17.576 106.837 17.3954 106.966 17.1634C107.096 16.928 107.16 16.6546 107.16 16.343C107.16 16.0282 107.096 15.7564 106.966 15.5277C106.837 15.2957 106.646 15.1167 106.395 14.9908C106.143 14.8648 105.833 14.8018 105.465 14.8018H104.252V23H101.791Z" fill="url(#paint1_linear_105_382)"/>
<path d="M37.7741 30.8182V41H35.348V32.7869H31.5696V41H29.1435V30.8182H37.7741ZM39.8208 41V30.8182H44.0267C44.789 30.8182 45.4469 30.9673 46.0004 31.2656C46.5573 31.5606 46.9865 31.9732 47.2881 32.5036C47.5897 33.0305 47.7405 33.6437 47.7405 34.343C47.7405 35.0457 47.5864 35.6605 47.2781 36.1875C46.9732 36.7112 46.5374 37.1172 45.9706 37.4055C45.4038 37.6939 44.731 37.8381 43.9521 37.8381H41.357V35.8991H43.4948C43.866 35.8991 44.1759 35.8345 44.4244 35.7053C44.6763 35.576 44.8669 35.3954 44.9962 35.1634C45.1254 34.928 45.1901 34.6546 45.1901 34.343C45.1901 34.0282 45.1254 33.7564 44.9962 33.5277C44.8669 33.2957 44.6763 33.1167 44.4244 32.9908C44.1726 32.8648 43.8627 32.8018 43.4948 32.8018H42.2817V41H39.8208ZM58.7037 35.9091C58.7037 37.0294 58.4882 37.9789 58.0573 38.7578C57.6265 39.5367 57.0431 40.1283 56.3073 40.5327C55.5749 40.937 54.7529 41.1392 53.8414 41.1392C52.9267 41.1392 52.103 40.9354 51.3706 40.5277C50.6381 40.12 50.0564 39.5284 49.6255 38.7528C49.198 37.974 48.9842 37.026 48.9842 35.9091C48.9842 34.7888 49.198 33.8393 49.6255 33.0604C50.0564 32.2815 50.6381 31.6899 51.3706 31.2855C52.103 30.8812 52.9267 30.679 53.8414 30.679C54.7529 30.679 55.5749 30.8812 56.3073 31.2855C57.0431 31.6899 57.6265 32.2815 58.0573 33.0604C58.4882 33.8393 58.7037 34.7888 58.7037 35.9091ZM56.188 35.9091C56.188 35.2462 56.0936 34.6861 55.9046 34.2287C55.719 33.7713 55.4506 33.425 55.0992 33.1896C54.7512 32.9543 54.332 32.8366 53.8414 32.8366C53.3542 32.8366 52.9349 32.9543 52.5836 33.1896C52.2323 33.425 51.9622 33.7713 51.7733 34.2287C51.5876 34.6861 51.4948 35.2462 51.4948 35.9091C51.4948 36.572 51.5876 37.1321 51.7733 37.5895C51.9622 38.0469 52.2323 38.3932 52.5836 38.6286C52.9349 38.8639 53.3542 38.9815 53.8414 38.9815C54.332 38.9815 54.7512 38.8639 55.0992 38.6286C55.4506 38.3932 55.719 38.0469 55.9046 37.5895C56.0936 37.1321 56.188 36.572 56.188 35.9091ZM66.4999 41L63.2982 36.7741H62.7414V41H60.2804V30.8182H62.7414V34.7706H63.1341L66.2861 30.8182H69.3635L65.441 35.6257L69.5674 41H66.4999ZM79.6145 35.9091C79.6145 37.0294 79.3991 37.9789 78.9682 38.7578C78.5373 39.5367 77.954 40.1283 77.2182 40.5327C76.4857 40.937 75.6638 41.1392 74.7523 41.1392C73.8375 41.1392 73.0139 40.9354 72.2814 40.5277C71.5489 40.12 70.9673 39.5284 70.5364 38.7528C70.1088 37.974 69.8951 37.026 69.8951 35.9091C69.8951 34.7888 70.1088 33.8393 70.5364 33.0604C70.9673 32.2815 71.5489 31.6899 72.2814 31.2855C73.0139 30.8812 73.8375 30.679 74.7523 30.679C75.6638 30.679 76.4857 30.8812 77.2182 31.2855C77.954 31.6899 78.5373 32.2815 78.9682 33.0604C79.3991 33.8393 79.6145 34.7888 79.6145 35.9091ZM77.0989 35.9091C77.0989 35.2462 77.0044 34.6861 76.8155 34.2287C76.6299 33.7713 76.3614 33.425 76.0101 33.1896C75.6621 32.9543 75.2428 32.8366 74.7523 32.8366C74.2651 32.8366 73.8458 32.9543 73.4945 33.1896C73.1432 33.425 72.873 33.7713 72.6841 34.2287C72.4985 34.6861 72.4057 35.2462 72.4057 35.9091C72.4057 36.572 72.4985 37.1321 72.6841 37.5895C72.873 38.0469 73.1432 38.3932 73.4945 38.6286C73.8458 38.8639 74.2651 38.9815 74.7523 38.9815C75.2428 38.9815 75.6621 38.8639 76.0101 38.6286C76.3614 38.3932 76.6299 38.0469 76.8155 37.5895C77.0044 37.1321 77.0989 36.572 77.0989 35.9091ZM80.7488 41V39.071L81.0272 39.0412C81.3852 38.9981 81.6769 38.8539 81.9022 38.6087C82.1276 38.3601 82.2983 37.9657 82.4143 37.4254C82.5336 36.8819 82.6099 36.1477 82.643 35.223L82.8071 30.8182H89.9512V41H87.5699V32.7571H85.0791L84.92 36.1278C84.8636 37.2912 84.7162 38.2308 84.4775 38.9467C84.2389 39.6593 83.8693 40.1797 83.3689 40.5078C82.8717 40.8359 82.2038 41 81.3653 41H80.7488Z" fill="url(#paint2_linear_105_382)"/>
<defs>
<linearGradient id="paint0_linear_105_382" x1="-9.55216e-07" y1="21.8528" x2="45.2758" y2="21.8528" gradientUnits="userSpaceOnUse">
<stop stop-color="#FFD743"/>
<stop offset="1" stop-color="#CEA200"/>
</linearGradient>
<linearGradient id="paint1_linear_105_382" x1="79" y1="9" x2="79" y2="26" gradientUnits="userSpaceOnUse">
<stop stop-color="#FFD743"/>
<stop offset="1" stop-color="#CEA200"/>
</linearGradient>
<linearGradient id="paint2_linear_105_382" x1="59.5" y1="27" x2="59.5" y2="44" gradientUnits="userSpaceOnUse">
<stop stop-color="#FFD743"/>
<stop offset="1" stop-color="#CEA200"/>
</linearGradient>
</defs>
</svg>
